<?xml version="1.0" encoding="UTF-8"?>
<svg xmlns="http://www.w3.org/2000/svg" xmlns:xlink="http://www.w3.org/1999/xlink" viewBox="0 0 100 100" width="100px" height="100px">
<g id="surface2756355">
<path style=" stroke:none;fill-rule:nonzero;fill:rgb(93.725491%,79.607844%,86.274511%);fill-opacity:1;" d="M 88.703125 55.675781 C 89.003906 55.0625 89.269531 54.414062 89.5 53.734375 C 92.132812 45.964844 88.152344 36.65625 79.765625 34.410156 C 78.859375 23.027344 70.859375 15.214844 61.824219 13.882812 C 51.484375 12.359375 42.011719 18.929688 38.859375 29.367188 C 35.0625 28.023438 31.359375 28.1875 27.871094 30.226562 C 26.285156 30.957031 24.839844 32.039062 23.539062 33.460938 C 21.632812 35.546875 20.394531 38.179688 19.886719 40.953125 C 19.140625 41.070312 18.40625 41.191406 17.710938 41.4375 C 13.671875 42.886719 11.121094 45.867188 10.425781 50.359375 C 9.988281 53.15625 10.867188 55.949219 11.355469 57.074219 C 13.292969 61.53125 17.777344 64.054688 22.339844 63.386719 C 22.566406 63.355469 22.894531 63.457031 23.089844 63.621094 C 23.332031 70.738281 26.789062 77.035156 31.972656 80.632812 C 40.296875 86.40625 51 84.628906 57.753906 76.714844 C 60.648438 79.671875 64.09375 81.109375 68.140625 80.589844 C 72.160156 80.070312 75.285156 77.851562 77.566406 74.238281 C 78.617188 74.523438 79.617188 74.929688 80.648438 75.042969 C 84.691406 75.484375 87.972656 73.878906 90.378906 70.242188 C 91.300781 68.851562 92.171875 67.050781 92.171875 63.890625 C 92.175781 60.632812 90.878906 57.667969 88.703125 55.675781 Z M 88.703125 55.675781 "/>
<path style=" stroke:none;fill-rule:nonzero;fill:rgb(100%,100%,100%);fill-opacity:1;" d="M 18.367188 47.714844 L 8.339844 47.714844 C 8.0625 47.714844 7.839844 47.488281 7.839844 47.214844 C 7.839844 46.9375 8.0625 46.714844 8.339844 46.714844 L 18.367188 46.714844 C 18.644531 46.714844 18.867188 46.9375 18.867188 47.214844 C 18.867188 47.488281 18.644531 47.714844 18.367188 47.714844 Z M 21.25 47.714844 L 19.804688 47.714844 C 19.527344 47.714844 19.304688 47.488281 19.304688 47.214844 C 19.304688 46.9375 19.527344 46.714844 19.804688 46.714844 L 21.25 46.714844 C 21.527344 46.714844 21.75 46.9375 21.75 47.214844 C 21.75 47.488281 21.527344 47.714844 21.25 47.714844 Z M 25.304688 47.714844 L 22.757812 47.714844 C 22.484375 47.714844 22.257812 47.488281 22.257812 47.214844 C 22.257812 46.9375 22.484375 46.714844 22.757812 46.714844 L 25.304688 46.714844 C 25.578125 46.714844 25.804688 46.9375 25.804688 47.214844 C 25.804688 47.488281 25.578125 47.714844 25.304688 47.714844 Z M 25.304688 49.578125 L 15.6875 49.578125 C 15.410156 49.578125 15.1875 49.355469 15.1875 49.078125 C 15.1875 48.800781 15.410156 48.578125 15.6875 48.578125 L 25.304688 48.578125 C 25.578125 48.578125 25.804688 48.800781 25.804688 49.078125 C 25.804688 49.355469 25.578125 49.578125 25.304688 49.578125 Z M 13.957031 49.578125 L 13.375 49.578125 C 13.101562 49.578125 12.875 49.355469 12.875 49.078125 C 12.875 48.800781 13.101562 48.578125 13.375 48.578125 L 13.957031 48.578125 C 14.230469 48.578125 14.457031 48.800781 14.457031 49.078125 C 14.457031 49.355469 14.234375 49.578125 13.957031 49.578125 Z M 11.578125 49.578125 L 10.121094 49.578125 C 9.847656 49.578125 9.621094 49.355469 9.621094 49.078125 C 9.621094 48.800781 9.847656 48.578125 10.121094 48.578125 L 11.578125 48.578125 C 11.855469 48.578125 12.078125 48.800781 12.078125 49.078125 C 12.078125 49.355469 11.855469 49.578125 11.578125 49.578125 Z M 20.714844 45.847656 L 15.6875 45.847656 C 15.410156 45.847656 15.1875 45.625 15.1875 45.347656 C 15.1875 45.070312 15.410156 44.847656 15.6875 44.847656 L 20.714844 44.847656 C 20.992188 44.847656 21.214844 45.070312 21.214844 45.347656 C 21.214844 45.625 20.992188 45.847656 20.714844 45.847656 Z M 20.714844 43.984375 L 19.457031 43.984375 C 19.183594 43.984375 18.957031 43.757812 18.957031 43.484375 C 18.957031 43.207031 19.183594 42.984375 19.457031 42.984375 L 20.714844 42.984375 C 20.992188 42.984375 21.214844 43.207031 21.214844 43.484375 C 21.214844 43.757812 20.992188 43.984375 20.714844 43.984375 Z M 17.445312 51.441406 L 15.6875 51.441406 C 15.410156 51.441406 15.1875 51.21875 15.1875 50.941406 C 15.1875 50.667969 15.410156 50.441406 15.6875 50.441406 L 17.445312 50.441406 C 17.722656 50.441406 17.945312 50.667969 17.945312 50.941406 C 17.945312 51.21875 17.722656 51.441406 17.445312 51.441406 Z M 74.394531 25.390625 L 64.363281 25.390625 C 64.089844 25.390625 63.863281 25.167969 63.863281 24.890625 C 63.863281 24.617188 64.089844 24.390625 64.363281 24.390625 L 74.394531 24.390625 C 74.671875 24.390625 74.894531 24.617188 74.894531 24.890625 C 74.894531 25.167969 74.671875 25.390625 74.394531 25.390625 Z M 77.277344 25.390625 L 75.828125 25.390625 C 75.554688 25.390625 75.328125 25.167969 75.328125 24.890625 C 75.328125 24.617188 75.554688 24.390625 75.828125 24.390625 L 77.277344 24.390625 C 77.550781 24.390625 77.777344 24.617188 77.777344 24.890625 C 77.777344 25.167969 77.550781 25.390625 77.277344 25.390625 Z M 81.328125 25.390625 L 78.785156 25.390625 C 78.507812 25.390625 78.285156 25.167969 78.285156 24.890625 C 78.285156 24.617188 78.507812 24.390625 78.785156 24.390625 L 81.328125 24.390625 C 81.605469 24.390625 81.828125 24.617188 81.828125 24.890625 C 81.828125 25.167969 81.605469 25.390625 81.328125 25.390625 Z M 81.328125 27.257812 L 71.714844 27.257812 C 71.4375 27.257812 71.214844 27.03125 71.214844 26.757812 C 71.214844 26.480469 71.4375 26.257812 71.714844 26.257812 L 81.328125 26.257812 C 81.605469 26.257812 81.828125 26.480469 81.828125 26.757812 C 81.828125 27.03125 81.605469 27.257812 81.328125 27.257812 Z M 69.980469 27.257812 L 69.402344 27.257812 C 69.125 27.257812 68.902344 27.03125 68.902344 26.757812 C 68.902344 26.480469 69.125 26.257812 69.402344 26.257812 L 69.980469 26.257812 C 70.257812 26.257812 70.480469 26.480469 70.480469 26.757812 C 70.480469 27.03125 70.257812 27.257812 69.980469 27.257812 Z M 67.605469 27.257812 L 66.148438 27.257812 C 65.871094 27.257812 65.648438 27.03125 65.648438 26.757812 C 65.648438 26.480469 65.871094 26.257812 66.148438 26.257812 L 67.605469 26.257812 C 67.882812 26.257812 68.105469 26.480469 68.105469 26.757812 C 68.105469 27.03125 67.882812 27.257812 67.605469 27.257812 Z M 76.742188 23.527344 L 71.714844 23.527344 C 71.4375 23.527344 71.214844 23.304688 71.214844 23.027344 C 71.214844 22.75 71.4375 22.527344 71.714844 22.527344 L 76.742188 22.527344 C 77.015625 22.527344 77.242188 22.75 77.242188 23.027344 C 77.242188 23.304688 77.019531 23.527344 76.742188 23.527344 Z M 76.742188 21.660156 L 75.484375 21.660156 C 75.207031 21.660156 74.984375 21.4375 74.984375 21.160156 C 74.984375 20.886719 75.207031 20.660156 75.484375 20.660156 L 76.742188 20.660156 C 77.015625 20.660156 77.242188 20.886719 77.242188 21.160156 C 77.242188 21.4375 77.019531 21.660156 76.742188 21.660156 Z M 73.472656 29.121094 L 71.714844 29.121094 C 71.4375 29.121094 71.214844 28.898438 71.214844 28.621094 C 71.214844 28.347656 71.4375 28.121094 71.714844 28.121094 L 73.472656 28.121094 C 73.746094 28.121094 73.972656 28.347656 73.972656 28.621094 C 73.972656 28.898438 73.75 29.121094 73.472656 29.121094 Z M 73.472656 29.121094 "/>
<path style=" stroke:none;fill-rule:nonzero;fill:rgb(99.215686%,98.823529%,93.725491%);fill-opacity:1;" d="M 74.964844 48.546875 C 74.964844 48.546875 85.582031 48.546875 85.644531 48.546875 C 88.097656 48.546875 90.085938 46.558594 90.085938 44.105469 C 90.085938 41.96875 88.570312 40.183594 86.558594 39.761719 C 86.582031 39.574219 86.597656 39.386719 86.597656 39.191406 C 86.597656 36.652344 84.539062 34.59375 82 34.59375 C 80.5 34.59375 79.171875 35.316406 78.335938 36.425781 C 78.117188 33.601562 75.59375 31.417969 72.640625 31.78125 C 70.480469 32.042969 68.695312 33.714844 68.296875 35.851562 C 68.171875 36.539062 68.183594 37.203125 68.308594 37.828125 C 67.730469 37.207031 66.90625 36.8125 65.988281 36.8125 C 64.308594 36.8125 62.9375 38.121094 62.828125 39.773438 C 62.066406 39.605469 61.234375 39.617188 60.359375 39.945312 C 58.691406 40.570312 57.5 42.144531 57.429688 43.929688 C 57.332031 46.460938 59.355469 48.546875 61.867188 48.546875 C 62.058594 48.546875 62.726562 48.546875 62.882812 48.546875 L 72.097656 48.546875 "/>
<path style=" stroke:none;fill-rule:nonzero;fill:rgb(27.843139%,16.862746%,16.078432%);fill-opacity:1;" d="M 85.644531 49.046875 L 74.964844 49.046875 C 74.6875 49.046875 74.464844 48.820312 74.464844 48.546875 C 74.464844 48.269531 74.6875 48.046875 74.964844 48.046875 L 85.644531 48.046875 C 87.816406 48.046875 89.585938 46.277344 89.585938 44.105469 C 89.585938 42.253906 88.269531 40.632812 86.457031 40.253906 C 86.203125 40.199219 86.03125 39.960938 86.0625 39.699219 C 86.082031 39.535156 86.097656 39.363281 86.097656 39.191406 C 86.097656 36.933594 84.257812 35.09375 82 35.09375 C 80.707031 35.09375 79.515625 35.691406 78.730469 36.726562 C 78.605469 36.894531 78.394531 36.964844 78.191406 36.90625 C 77.992188 36.847656 77.851562 36.671875 77.835938 36.464844 C 77.742188 35.226562 77.132812 34.0625 76.171875 33.273438 C 75.199219 32.476562 73.964844 32.125 72.699219 32.277344 C 70.753906 32.515625 69.144531 34.023438 68.785156 35.945312 C 68.675781 36.542969 68.679688 37.144531 68.796875 37.730469 C 68.84375 37.949219 68.734375 38.171875 68.535156 38.273438 C 68.335938 38.375 68.09375 38.335938 67.941406 38.171875 C 67.429688 37.617188 66.734375 37.3125 65.984375 37.3125 C 64.585938 37.3125 63.414062 38.410156 63.324219 39.808594 C 63.3125 39.953125 63.242188 40.089844 63.125 40.175781 C 63.007812 40.261719 62.855469 40.292969 62.71875 40.261719 C 61.960938 40.097656 61.246094 40.144531 60.535156 40.414062 C 59.035156 40.976562 57.988281 42.394531 57.929688 43.949219 C 57.886719 45.03125 58.273438 46.058594 59.023438 46.835938 C 59.773438 47.617188 60.78125 48.046875 61.863281 48.046875 L 72.097656 48.046875 C 72.371094 48.046875 72.597656 48.269531 72.597656 48.546875 C 72.597656 48.820312 72.371094 49.046875 72.097656 49.046875 L 61.867188 49.046875 C 60.511719 49.046875 59.246094 48.507812 58.304688 47.53125 C 57.367188 46.554688 56.878906 45.265625 56.929688 43.910156 C 57.007812 41.960938 58.3125 40.179688 60.183594 39.476562 C 60.90625 39.207031 61.648438 39.113281 62.40625 39.199219 C 62.765625 37.542969 64.246094 36.3125 65.988281 36.3125 C 66.589844 36.3125 67.179688 36.464844 67.707031 36.746094 C 67.710938 36.417969 67.742188 36.089844 67.804688 35.761719 C 68.238281 33.414062 70.203125 31.574219 72.578125 31.285156 C 74.113281 31.089844 75.617188 31.527344 76.804688 32.5 C 77.703125 33.238281 78.347656 34.242188 78.652344 35.351562 C 79.570312 34.542969 80.746094 34.09375 82 34.09375 C 84.808594 34.09375 87.097656 36.382812 87.097656 39.191406 C 87.097656 39.257812 87.097656 39.320312 87.09375 39.386719 C 89.140625 40.011719 90.585938 41.933594 90.585938 44.109375 C 90.585938 46.828125 88.367188 49.046875 85.644531 49.046875 Z M 85.644531 49.046875 "/>
<path style=" stroke:none;fill-rule:nonzero;fill:rgb(99.215686%,98.823529%,93.725491%);fill-opacity:1;" d="M 72.390625 38.765625 C 70.75 38.660156 69.335938 39.792969 69.234375 41.300781 C 69.222656 41.488281 69.230469 41.671875 69.257812 41.851562 C 68.941406 41.492188 68.472656 41.25 67.933594 41.214844 C 66.949219 41.148438 66.097656 41.800781 65.976562 42.683594 C 65.796875 42.636719 65.609375 42.601562 65.414062 42.589844 C 63.976562 42.496094 62.742188 43.488281 62.652344 44.804688 "/>
<path style=" stroke:none;fill-rule:nonzero;fill:rgb(27.843139%,16.862746%,16.078432%);fill-opacity:1;" d="M 62.65625 45.058594 C 62.648438 45.058594 62.644531 45.058594 62.636719 45.058594 C 62.5 45.046875 62.394531 44.929688 62.40625 44.789062 C 62.503906 43.335938 63.851562 42.234375 65.433594 42.34375 C 65.550781 42.351562 65.667969 42.363281 65.785156 42.386719 C 66.046875 41.507812 66.949219 40.902344 67.953125 40.964844 C 68.328125 40.992188 68.683594 41.105469 68.988281 41.296875 C 68.988281 41.292969 68.988281 41.289062 68.988281 41.285156 C 69.097656 39.644531 70.644531 38.410156 72.410156 38.519531 C 72.546875 38.527344 72.652344 38.648438 72.644531 38.785156 C 72.632812 38.921875 72.519531 39.027344 72.378906 39.019531 C 70.867188 38.914062 69.578125 39.949219 69.484375 41.316406 C 69.476562 41.484375 69.480469 41.652344 69.507812 41.8125 C 69.523438 41.921875 69.464844 42.03125 69.367188 42.078125 C 69.269531 42.125 69.144531 42.101562 69.074219 42.015625 C 68.789062 41.695312 68.367188 41.496094 67.917969 41.464844 C 67.066406 41.410156 66.328125 41.960938 66.222656 42.722656 C 66.214844 42.792969 66.175781 42.855469 66.113281 42.894531 C 66.054688 42.933594 65.980469 42.945312 65.910156 42.929688 C 65.738281 42.882812 65.566406 42.851562 65.402344 42.84375 C 64.109375 42.761719 62.984375 43.644531 62.90625 44.824219 C 62.894531 44.957031 62.785156 45.058594 62.65625 45.058594 Z M 62.65625 45.058594 "/>
<path style=" stroke:none;fill-rule:nonzero;fill:rgb(99.215686%,98.823529%,93.725491%);fill-opacity:1;" d="M 87.441406 40.28125 C 85.898438 39.554688 84.117188 40.070312 83.457031 41.433594 C 83.375 41.601562 83.316406 41.777344 83.277344 41.953125 "/>
<path style=" stroke:none;fill-rule:nonzero;fill:rgb(27.843139%,16.862746%,16.078432%);fill-opacity:1;" d="M 83.273438 42.203125 C 83.257812 42.203125 83.238281 42.203125 83.21875 42.199219 C 83.085938 42.167969 83 42.03125 83.03125 41.898438 C 83.074219 41.699219 83.144531 41.507812 83.230469 41.324219 C 83.949219 39.839844 85.882812 39.269531 87.550781 40.058594 C 87.675781 40.117188 87.726562 40.265625 87.667969 40.390625 C 87.609375 40.515625 87.460938 40.566406 87.335938 40.511719 C 85.921875 39.84375 84.28125 40.304688 83.683594 41.542969 C 83.609375 41.691406 83.554688 41.847656 83.519531 42.011719 C 83.492188 42.125 83.390625 42.203125 83.273438 42.203125 Z M 83.273438 42.203125 "/>
<path style=" stroke:none;fill-rule:nonzero;fill:rgb(45.09804%,69.803923%,89.803922%);fill-opacity:1;" d="M 65.261719 69.972656 L 39.539062 69.972656 C 35.773438 69.972656 32.691406 66.894531 32.691406 63.128906 L 32.691406 37.40625 C 32.691406 33.640625 35.773438 30.558594 39.539062 30.558594 L 65.261719 30.558594 C 69.027344 30.558594 72.105469 33.640625 72.105469 37.40625 L 72.105469 63.128906 C 72.109375 66.894531 69.027344 69.972656 65.261719 69.972656 Z M 65.261719 69.972656 "/>
<path style=" stroke:none;fill-rule:nonzero;fill:rgb(27.843139%,16.862746%,16.078432%);fill-opacity:1;" d="M 65.261719 70.675781 L 39.539062 70.675781 C 35.375 70.675781 31.992188 67.289062 31.992188 63.128906 L 31.992188 37.40625 C 31.992188 33.242188 35.378906 29.859375 39.539062 29.859375 L 65.261719 29.859375 C 69.421875 29.859375 72.808594 33.242188 72.808594 37.40625 L 72.808594 63.128906 C 72.808594 67.289062 69.421875 70.675781 65.261719 70.675781 Z M 39.539062 31.257812 C 36.148438 31.257812 33.390625 34.015625 33.390625 37.40625 L 33.390625 63.128906 C 33.390625 66.515625 36.148438 69.273438 39.539062 69.273438 L 65.261719 69.273438 C 68.648438 69.273438 71.40625 66.515625 71.40625 63.128906 L 71.40625 37.40625 C 71.40625 34.015625 68.648438 31.257812 65.261719 31.257812 Z M 39.539062 31.257812 "/>
<path style=" stroke:none;fill-rule:nonzero;fill:rgb(99.215686%,98.823529%,93.333334%);fill-opacity:1;" d="M 63.742188 67.160156 L 41.054688 67.160156 C 38.003906 67.160156 35.507812 64.660156 35.507812 61.609375 L 35.507812 38.921875 C 35.507812 35.871094 38.003906 33.371094 41.054688 33.371094 L 63.742188 33.371094 C 66.796875 33.371094 69.292969 35.871094 69.292969 38.921875 L 69.292969 61.609375 C 69.292969 64.660156 66.796875 67.160156 63.742188 67.160156 Z M 63.742188 67.160156 "/>
<path style=" stroke:none;fill-rule:nonzero;fill:rgb(27.843139%,16.862746%,16.078432%);fill-opacity:1;" d="M 64.15625 67.507812 L 40.640625 67.507812 C 37.617188 67.507812 35.15625 65.050781 35.15625 62.023438 L 35.15625 38.507812 C 35.15625 35.484375 37.617188 33.023438 40.640625 33.023438 L 63.035156 33.023438 C 63.230469 33.023438 63.386719 33.179688 63.386719 33.375 C 63.386719 33.566406 63.230469 33.722656 63.035156 33.722656 L 40.640625 33.722656 C 38.003906 33.722656 35.855469 35.871094 35.855469 38.507812 L 35.855469 62.023438 C 35.855469 64.664062 38.003906 66.808594 40.640625 66.808594 L 64.15625 66.808594 C 66.796875 66.808594 68.941406 64.664062 68.941406 62.023438 L 68.941406 49.015625 C 68.941406 48.820312 69.097656 48.664062 69.292969 48.664062 C 69.484375 48.664062 69.640625 48.820312 69.640625 49.015625 L 69.640625 62.023438 C 69.640625 65.050781 67.183594 67.507812 64.15625 67.507812 Z M 64.15625 67.507812 "/>
<path style=" stroke:none;fill-rule:nonzero;fill:rgb(27.843139%,16.862746%,16.078432%);fill-opacity:1;" d="M 69.292969 47.488281 C 69.097656 47.488281 68.941406 47.332031 68.941406 47.136719 L 68.941406 44.636719 C 68.941406 44.441406 69.097656 44.285156 69.292969 44.285156 C 69.484375 44.285156 69.640625 44.441406 69.640625 44.636719 L 69.640625 47.136719 C 69.640625 47.332031 69.484375 47.488281 69.292969 47.488281 Z M 69.292969 43.734375 C 69.097656 43.734375 68.941406 43.578125 68.941406 43.382812 L 68.941406 42.132812 C 68.941406 41.941406 69.097656 41.78125 69.292969 41.78125 C 69.484375 41.78125 69.640625 41.941406 69.640625 42.132812 L 69.640625 43.382812 C 69.640625 43.578125 69.484375 43.734375 69.292969 43.734375 Z M 69.292969 43.734375 "/>
<path style=" stroke:none;fill-rule:nonzero;fill:rgb(14.901961%,54.509807%,93.725491%);fill-opacity:1;" d="M 63.042969 44.339844 C 62.261719 44.6875 61.417969 44.921875 60.535156 45.027344 C 61.4375 44.488281 62.128906 43.632812 62.453125 42.613281 C 61.609375 43.113281 60.675781 43.476562 59.683594 43.671875 C 58.886719 42.824219 57.75 42.292969 56.492188 42.292969 C 54.082031 42.292969 52.128906 44.246094 52.128906 46.660156 C 52.128906 47 52.164062 47.335938 52.238281 47.652344 C 48.609375 47.472656 45.390625 45.734375 43.238281 43.089844 C 42.863281 43.734375 42.644531 44.484375 42.644531 45.285156 C 42.644531 46.804688 43.417969 48.140625 44.589844 48.921875 C 43.871094 48.898438 43.199219 48.703125 42.609375 48.378906 C 42.609375 48.394531 42.609375 48.414062 42.609375 48.433594 C 42.609375 50.550781 44.113281 52.3125 46.113281 52.714844 C 45.746094 52.8125 45.359375 52.867188 44.960938 52.867188 C 44.679688 52.867188 44.40625 52.839844 44.140625 52.789062 C 44.695312 54.523438 46.308594 55.785156 48.21875 55.824219 C 46.726562 56.992188 44.84375 57.691406 42.796875 57.691406 C 42.441406 57.691406 42.09375 57.671875 41.753906 57.632812 C 43.6875 58.871094 45.980469 59.59375 48.449219 59.59375 C 56.480469 59.59375 60.875 52.9375 60.875 47.164062 C 60.875 46.976562 60.871094 46.789062 60.863281 46.601562 C 61.71875 45.984375 62.457031 45.21875 63.042969 44.339844 Z M 63.042969 44.339844 "/>
<path style=" stroke:none;fill-rule:nonzero;fill:rgb(27.843139%,16.862746%,16.078432%);fill-opacity:1;" d="M 48.449219 59.941406 C 46.007812 59.941406 43.625 59.246094 41.566406 57.925781 C 41.429688 57.839844 41.371094 57.667969 41.425781 57.515625 C 41.480469 57.359375 41.632812 57.269531 41.796875 57.285156 C 42.121094 57.324219 42.460938 57.34375 42.796875 57.34375 C 44.402344 57.34375 45.9375 56.902344 47.273438 56.0625 C 45.660156 55.703125 44.324219 54.515625 43.808594 52.898438 C 43.769531 52.78125 43.796875 52.652344 43.878906 52.558594 C 43.960938 52.46875 44.085938 52.421875 44.203125 52.445312 C 44.332031 52.472656 44.457031 52.488281 44.585938 52.5 C 43.179688 51.671875 42.257812 50.136719 42.257812 48.433594 C 42.257812 48.308594 42.324219 48.167969 42.429688 48.105469 C 42.539062 48.042969 42.671875 48.011719 42.777344 48.070312 C 42.988281 48.1875 43.203125 48.285156 43.429688 48.359375 C 42.703125 47.515625 42.292969 46.433594 42.292969 45.289062 C 42.292969 44.453125 42.515625 43.636719 42.933594 42.917969 C 42.988281 42.816406 43.09375 42.753906 43.207031 42.742188 C 43.320312 42.738281 43.433594 42.78125 43.507812 42.871094 C 45.570312 45.40625 48.578125 46.996094 51.8125 47.277344 C 51.785156 47.074219 51.773438 46.867188 51.773438 46.660156 C 51.773438 44.0625 53.890625 41.945312 56.492188 41.945312 C 57.722656 41.945312 58.917969 42.433594 59.796875 43.292969 C 60.664062 43.101562 61.5 42.773438 62.273438 42.3125 C 62.398438 42.238281 62.558594 42.25 62.671875 42.339844 C 62.785156 42.429688 62.828125 42.582031 62.785156 42.722656 C 62.585938 43.351562 62.253906 43.925781 61.816406 44.414062 C 62.1875 44.308594 62.546875 44.179688 62.898438 44.023438 C 63.042969 43.960938 63.207031 43.996094 63.308594 44.117188 C 63.410156 44.234375 63.417969 44.40625 63.332031 44.535156 C 62.753906 45.402344 62.042969 46.152344 61.21875 46.773438 C 61.222656 46.90625 61.222656 47.035156 61.222656 47.167969 C 61.226562 53.445312 56.445312 59.941406 48.449219 59.941406 Z M 43.1875 58.035156 C 44.824219 58.828125 46.617188 59.242188 48.449219 59.242188 C 56.011719 59.242188 60.527344 53.101562 60.527344 47.164062 C 60.527344 46.980469 60.523438 46.796875 60.515625 46.613281 C 60.507812 46.496094 60.5625 46.386719 60.660156 46.316406 C 61.160156 45.953125 61.617188 45.539062 62.027344 45.082031 C 61.554688 45.21875 61.070312 45.316406 60.574219 45.375 C 60.417969 45.394531 60.257812 45.296875 60.203125 45.140625 C 60.148438 44.984375 60.214844 44.8125 60.355469 44.726562 C 60.914062 44.390625 61.378906 43.929688 61.714844 43.390625 C 61.085938 43.671875 60.425781 43.882812 59.75 44.011719 C 59.632812 44.039062 59.511719 43.996094 59.429688 43.910156 C 58.671875 43.101562 57.601562 42.640625 56.492188 42.640625 C 54.277344 42.640625 52.476562 44.441406 52.476562 46.65625 C 52.476562 46.972656 52.511719 47.28125 52.578125 47.574219 C 52.605469 47.679688 52.578125 47.792969 52.507812 47.878906 C 52.4375 47.960938 52.324219 47.996094 52.222656 48.003906 C 48.800781 47.832031 45.585938 46.277344 43.3125 43.71875 C 43.105469 44.210938 42.996094 44.746094 42.996094 45.285156 C 42.996094 46.632812 43.664062 47.882812 44.78125 48.632812 C 44.914062 48.71875 44.96875 48.882812 44.921875 49.027344 C 44.875 49.179688 44.726562 49.308594 44.578125 49.269531 C 44.035156 49.253906 43.5 49.140625 42.996094 48.945312 C 43.226562 50.648438 44.496094 52.03125 46.183594 52.371094 C 46.339844 52.402344 46.457031 52.539062 46.464844 52.703125 C 46.46875 52.863281 46.359375 53.007812 46.203125 53.050781 C 45.710938 53.1875 45.199219 53.238281 44.683594 53.210938 C 45.335938 54.554688 46.699219 55.445312 48.226562 55.472656 C 48.375 55.476562 48.503906 55.570312 48.554688 55.710938 C 48.601562 55.851562 48.554688 56.007812 48.4375 56.097656 C 46.917969 57.289062 45.109375 57.953125 43.1875 58.035156 Z M 43.1875 58.035156 "/>
<path style=" stroke:none;fill-rule:nonzero;fill:rgb(99.215686%,98.823529%,93.725491%);fill-opacity:1;" d="M 42.125 72.488281 C 43.835938 72.488281 45.320312 72.488281 45.339844 72.488281 C 47.257812 72.488281 48.808594 70.96875 48.808594 69.089844 C 48.808594 67.453125 47.628906 66.089844 46.054688 65.769531 C 46.070312 65.625 46.085938 65.480469 46.085938 65.332031 C 46.085938 63.390625 44.476562 61.816406 42.492188 61.816406 C 41.320312 61.816406 40.28125 62.367188 39.628906 63.214844 C 39.460938 61.054688 37.484375 59.386719 35.175781 59.660156 C 33.488281 59.863281 32.09375 61.140625 31.78125 62.777344 C 31.683594 63.304688 31.691406 63.8125 31.792969 64.289062 C 31.339844 63.8125 30.695312 63.511719 29.976562 63.511719 C 28.664062 63.511719 27.59375 64.515625 27.507812 65.777344 C 26.910156 65.648438 26.261719 65.65625 25.578125 65.90625 C 24.273438 66.386719 23.34375 67.589844 23.289062 68.953125 C 23.214844 70.890625 24.792969 72.488281 26.757812 72.488281 C 26.90625 72.488281 27.429688 72.488281 27.550781 72.488281 L 34.753906 72.488281 M 36.246094 72.488281 L 36.570312 72.488281 "/>
<path style=" stroke:none;fill-rule:nonzero;fill:rgb(27.843139%,16.862746%,16.078432%);fill-opacity:1;" d="M 45.339844 72.988281 L 42.125 72.988281 C 41.851562 72.988281 41.625 72.761719 41.625 72.488281 C 41.625 72.210938 41.851562 71.988281 42.125 71.988281 L 45.339844 71.988281 C 46.976562 71.988281 48.308594 70.6875 48.308594 69.089844 C 48.308594 67.726562 47.320312 66.535156 45.953125 66.257812 C 45.699219 66.207031 45.523438 65.964844 45.558594 65.707031 C 45.574219 65.582031 45.585938 65.460938 45.585938 65.332031 C 45.585938 63.667969 44.195312 62.316406 42.492188 62.316406 C 41.515625 62.316406 40.613281 62.753906 40.023438 63.523438 C 39.894531 63.6875 39.683594 63.753906 39.484375 63.695312 C 39.285156 63.636719 39.144531 63.460938 39.128906 63.253906 C 39.058594 62.34375 38.621094 61.515625 37.902344 60.921875 C 37.160156 60.3125 36.214844 60.039062 35.234375 60.160156 C 33.761719 60.335938 32.542969 61.449219 32.273438 62.871094 C 32.1875 63.3125 32.191406 63.757812 32.28125 64.1875 C 32.328125 64.40625 32.222656 64.628906 32.023438 64.734375 C 31.828125 64.835938 31.585938 64.796875 31.429688 64.632812 C 31.050781 64.234375 30.53125 64.011719 29.976562 64.011719 C 28.9375 64.011719 28.074219 64.800781 28.007812 65.808594 C 27.996094 65.953125 27.925781 66.089844 27.808594 66.175781 C 27.691406 66.265625 27.542969 66.296875 27.402344 66.265625 C 26.832031 66.140625 26.289062 66.179688 25.753906 66.375 C 24.621094 66.789062 23.835938 67.835938 23.789062 68.972656 C 23.757812 69.757812 24.039062 70.5 24.589844 71.070312 C 25.15625 71.660156 25.925781 71.984375 26.757812 71.984375 L 34.753906 71.984375 C 35.03125 71.984375 35.253906 72.210938 35.253906 72.484375 C 35.253906 72.761719 35.03125 72.984375 34.753906 72.984375 L 26.757812 72.984375 C 25.667969 72.984375 24.613281 72.539062 23.867188 71.761719 C 23.132812 70.996094 22.746094 69.992188 22.789062 68.933594 C 22.851562 67.394531 23.902344 65.992188 25.40625 65.4375 C 25.953125 65.238281 26.519531 65.160156 27.09375 65.210938 C 27.425781 63.941406 28.601562 63.011719 29.976562 63.011719 C 30.40625 63.011719 30.832031 63.105469 31.21875 63.28125 C 31.226562 63.082031 31.253906 62.882812 31.289062 62.683594 C 31.640625 60.839844 33.214844 59.390625 35.117188 59.164062 C 36.367188 59.015625 37.578125 59.363281 38.535156 60.148438 C 39.203125 60.695312 39.683594 61.402344 39.933594 62.195312 C 40.652344 61.628906 41.542969 61.3125 42.492188 61.3125 C 44.746094 61.3125 46.585938 63.113281 46.585938 65.328125 C 46.585938 65.351562 46.585938 65.371094 46.585938 65.390625 C 48.1875 65.910156 49.308594 67.402344 49.308594 69.089844 C 49.308594 71.238281 47.53125 72.988281 45.339844 72.988281 Z M 36.570312 72.988281 L 36.242188 72.988281 C 35.96875 72.988281 35.742188 72.761719 35.742188 72.488281 C 35.742188 72.210938 35.96875 71.988281 36.242188 71.988281 L 36.570312 71.988281 C 36.847656 71.988281 37.070312 72.210938 37.070312 72.488281 C 37.070312 72.761719 36.847656 72.988281 36.570312 72.988281 Z M 36.570312 72.988281 "/>
<path style=" stroke:none;fill-rule:nonzero;fill:rgb(27.843139%,16.862746%,16.078432%);fill-opacity:1;" d="M 43.789062 67.695312 C 43.773438 67.695312 43.753906 67.691406 43.734375 67.6875 C 43.601562 67.65625 43.515625 67.523438 43.546875 67.390625 C 43.582031 67.238281 43.632812 67.089844 43.703125 66.949219 C 44.257812 65.828125 45.785156 65.414062 47.113281 66.027344 C 47.238281 66.085938 47.292969 66.234375 47.234375 66.359375 C 47.175781 66.484375 47.027344 66.535156 46.902344 66.480469 C 45.820312 65.980469 44.585938 66.289062 44.152344 67.171875 C 44.101562 67.277344 44.0625 67.386719 44.035156 67.5 C 44.007812 67.617188 43.90625 67.695312 43.789062 67.695312 Z M 39.105469 72.988281 L 38.101562 72.988281 C 37.824219 72.988281 37.601562 72.761719 37.601562 72.488281 C 37.601562 72.210938 37.824219 71.988281 38.101562 71.988281 L 39.105469 71.988281 C 39.382812 71.988281 39.605469 72.210938 39.605469 72.488281 C 39.605469 72.761719 39.382812 72.988281 39.105469 72.988281 Z M 39.105469 72.988281 "/>
</g>
</svg>
