<?xml version="1.0" encoding="UTF-8"?>
<svg xmlns="http://www.w3.org/2000/svg" xmlns:xlink="http://www.w3.org/1999/xlink" viewBox="0 0 100 100" width="100px" height="100px">
<g id="surface114867089">
<path style=" stroke:none;fill-rule:nonzero;fill:rgb(95.686275%,80.000001%,84.313726%);fill-opacity:1;" d="M 88.703125 55.675781 C 89.003906 55.0625 89.269531 54.414062 89.5 53.734375 C 92.132812 45.964844 88.152344 36.65625 79.765625 34.410156 C 78.859375 23.027344 70.859375 15.214844 61.824219 13.882812 C 51.484375 12.359375 42.011719 18.929688 38.859375 29.367188 C 35.0625 28.023438 31.359375 28.1875 27.871094 30.226562 C 26.285156 30.957031 24.839844 32.039062 23.539062 33.460938 C 21.632812 35.546875 20.394531 38.179688 19.886719 40.953125 C 19.140625 41.070312 18.40625 41.191406 17.710938 41.4375 C 13.671875 42.886719 11.121094 45.867188 10.425781 50.359375 C 9.988281 53.15625 10.867188 55.949219 11.355469 57.074219 C 13.292969 61.53125 17.777344 64.054688 22.339844 63.386719 C 22.566406 63.355469 22.894531 63.457031 23.089844 63.621094 C 23.332031 70.738281 26.789062 77.035156 31.972656 80.632812 C 40.296875 86.40625 51 84.628906 57.753906 76.714844 C 60.648438 79.671875 64.09375 81.109375 68.140625 80.589844 C 72.160156 80.070312 75.285156 77.851562 77.566406 74.238281 C 78.617188 74.523438 79.617188 74.929688 80.648438 75.042969 C 84.691406 75.484375 87.972656 73.878906 90.378906 70.242188 C 91.300781 68.851562 92.171875 67.050781 92.171875 63.890625 C 92.175781 60.632812 90.878906 57.667969 88.703125 55.675781 Z M 88.703125 55.675781 "/>
<path style=" stroke:none;fill-rule:nonzero;fill:rgb(100%,100%,100%);fill-opacity:1;" d="M 18.367188 47.714844 L 8.339844 47.714844 C 8.0625 47.714844 7.839844 47.488281 7.839844 47.214844 C 7.839844 46.9375 8.0625 46.714844 8.339844 46.714844 L 18.367188 46.714844 C 18.644531 46.714844 18.867188 46.9375 18.867188 47.214844 C 18.867188 47.488281 18.644531 47.714844 18.367188 47.714844 Z M 21.25 47.714844 L 19.804688 47.714844 C 19.527344 47.714844 19.304688 47.488281 19.304688 47.214844 C 19.304688 46.9375 19.527344 46.714844 19.804688 46.714844 L 21.25 46.714844 C 21.527344 46.714844 21.75 46.9375 21.75 47.214844 C 21.75 47.488281 21.527344 47.714844 21.25 47.714844 Z M 25.304688 47.714844 L 22.757812 47.714844 C 22.480469 47.714844 22.257812 47.488281 22.257812 47.214844 C 22.257812 46.9375 22.480469 46.714844 22.757812 46.714844 L 25.304688 46.714844 C 25.578125 46.714844 25.804688 46.9375 25.804688 47.214844 C 25.804688 47.488281 25.582031 47.714844 25.304688 47.714844 Z M 25.304688 49.578125 L 15.6875 49.578125 C 15.410156 49.578125 15.1875 49.355469 15.1875 49.078125 C 15.1875 48.800781 15.410156 48.578125 15.6875 48.578125 L 25.304688 48.578125 C 25.578125 48.578125 25.804688 48.800781 25.804688 49.078125 C 25.804688 49.355469 25.582031 49.578125 25.304688 49.578125 Z M 13.957031 49.578125 L 13.378906 49.578125 C 13.101562 49.578125 12.878906 49.355469 12.878906 49.078125 C 12.878906 48.800781 13.101562 48.578125 13.378906 48.578125 L 13.957031 48.578125 C 14.234375 48.578125 14.457031 48.800781 14.457031 49.078125 C 14.457031 49.355469 14.234375 49.578125 13.957031 49.578125 Z M 11.578125 49.578125 L 10.125 49.578125 C 9.847656 49.578125 9.625 49.355469 9.625 49.078125 C 9.625 48.800781 9.847656 48.578125 10.125 48.578125 L 11.578125 48.578125 C 11.855469 48.578125 12.078125 48.800781 12.078125 49.078125 C 12.078125 49.355469 11.855469 49.578125 11.578125 49.578125 Z M 20.714844 45.847656 L 15.6875 45.847656 C 15.410156 45.847656 15.1875 45.625 15.1875 45.347656 C 15.1875 45.070312 15.410156 44.847656 15.6875 44.847656 L 20.714844 44.847656 C 20.992188 44.847656 21.214844 45.070312 21.214844 45.347656 C 21.214844 45.625 20.992188 45.847656 20.714844 45.847656 Z M 20.714844 43.984375 L 19.457031 43.984375 C 19.179688 43.984375 18.957031 43.757812 18.957031 43.484375 C 18.957031 43.207031 19.179688 42.984375 19.457031 42.984375 L 20.714844 42.984375 C 20.992188 42.984375 21.214844 43.207031 21.214844 43.484375 C 21.214844 43.757812 20.992188 43.984375 20.714844 43.984375 Z M 17.445312 51.441406 L 15.6875 51.441406 C 15.410156 51.441406 15.1875 51.21875 15.1875 50.941406 C 15.1875 50.667969 15.410156 50.441406 15.6875 50.441406 L 17.445312 50.441406 C 17.722656 50.441406 17.945312 50.667969 17.945312 50.941406 C 17.945312 51.21875 17.722656 51.441406 17.445312 51.441406 Z M 74.394531 25.390625 L 64.363281 25.390625 C 64.089844 25.390625 63.863281 25.167969 63.863281 24.890625 C 63.863281 24.617188 64.089844 24.390625 64.363281 24.390625 L 74.394531 24.390625 C 74.671875 24.390625 74.894531 24.617188 74.894531 24.890625 C 74.894531 25.167969 74.671875 25.390625 74.394531 25.390625 Z M 77.277344 25.390625 L 75.828125 25.390625 C 75.554688 25.390625 75.328125 25.167969 75.328125 24.890625 C 75.328125 24.617188 75.554688 24.390625 75.828125 24.390625 L 77.277344 24.390625 C 77.550781 24.390625 77.777344 24.617188 77.777344 24.890625 C 77.777344 25.167969 77.550781 25.390625 77.277344 25.390625 Z M 81.328125 25.390625 L 78.785156 25.390625 C 78.507812 25.390625 78.285156 25.167969 78.285156 24.890625 C 78.285156 24.617188 78.507812 24.390625 78.785156 24.390625 L 81.328125 24.390625 C 81.605469 24.390625 81.828125 24.617188 81.828125 24.890625 C 81.828125 25.167969 81.605469 25.390625 81.328125 25.390625 Z M 81.328125 27.257812 L 71.714844 27.257812 C 71.4375 27.257812 71.214844 27.03125 71.214844 26.757812 C 71.214844 26.480469 71.4375 26.257812 71.714844 26.257812 L 81.328125 26.257812 C 81.605469 26.257812 81.828125 26.480469 81.828125 26.757812 C 81.828125 27.03125 81.605469 27.257812 81.328125 27.257812 Z M 69.980469 27.257812 L 69.402344 27.257812 C 69.125 27.257812 68.902344 27.03125 68.902344 26.757812 C 68.902344 26.480469 69.125 26.257812 69.402344 26.257812 L 69.980469 26.257812 C 70.257812 26.257812 70.480469 26.480469 70.480469 26.757812 C 70.480469 27.03125 70.257812 27.257812 69.980469 27.257812 Z M 67.605469 27.257812 L 66.148438 27.257812 C 65.871094 27.257812 65.648438 27.03125 65.648438 26.757812 C 65.648438 26.480469 65.871094 26.257812 66.148438 26.257812 L 67.605469 26.257812 C 67.882812 26.257812 68.105469 26.480469 68.105469 26.757812 C 68.105469 27.03125 67.882812 27.257812 67.605469 27.257812 Z M 76.742188 23.527344 L 71.714844 23.527344 C 71.4375 23.527344 71.214844 23.304688 71.214844 23.027344 C 71.214844 22.75 71.4375 22.527344 71.714844 22.527344 L 76.742188 22.527344 C 77.015625 22.527344 77.242188 22.75 77.242188 23.027344 C 77.242188 23.304688 77.015625 23.527344 76.742188 23.527344 Z M 76.742188 21.660156 L 75.484375 21.660156 C 75.207031 21.660156 74.984375 21.4375 74.984375 21.160156 C 74.984375 20.886719 75.207031 20.660156 75.484375 20.660156 L 76.742188 20.660156 C 77.015625 20.660156 77.242188 20.886719 77.242188 21.160156 C 77.242188 21.4375 77.015625 21.660156 76.742188 21.660156 Z M 73.472656 29.121094 L 71.714844 29.121094 C 71.4375 29.121094 71.214844 28.898438 71.214844 28.621094 C 71.214844 28.347656 71.4375 28.121094 71.714844 28.121094 L 73.472656 28.121094 C 73.746094 28.121094 73.972656 28.347656 73.972656 28.621094 C 73.972656 28.898438 73.75 29.121094 73.472656 29.121094 Z M 73.472656 29.121094 "/>
<path style=" stroke:none;fill-rule:nonzero;fill:rgb(99.215686%,98.823529%,93.725491%);fill-opacity:1;" d="M 74.964844 48.546875 C 74.964844 48.546875 85.582031 48.546875 85.644531 48.546875 C 88.097656 48.546875 90.085938 46.558594 90.085938 44.105469 C 90.085938 41.96875 88.570312 40.183594 86.558594 39.761719 C 86.582031 39.574219 86.597656 39.386719 86.597656 39.191406 C 86.597656 36.652344 84.539062 34.59375 82 34.59375 C 80.5 34.59375 79.171875 35.316406 78.335938 36.425781 C 78.117188 33.601562 75.59375 31.417969 72.640625 31.78125 C 70.480469 32.042969 68.695312 33.714844 68.296875 35.851562 C 68.171875 36.539062 68.183594 37.203125 68.308594 37.828125 C 67.730469 37.207031 66.90625 36.8125 65.988281 36.8125 C 64.308594 36.8125 62.9375 38.121094 62.828125 39.773438 C 62.066406 39.605469 61.234375 39.617188 60.359375 39.945312 C 58.691406 40.570312 57.5 42.144531 57.429688 43.929688 C 57.332031 46.460938 59.355469 48.546875 61.867188 48.546875 C 62.058594 48.546875 62.726562 48.546875 62.882812 48.546875 L 72.097656 48.546875 "/>
<path style=" stroke:none;fill-rule:nonzero;fill:rgb(27.843139%,16.862746%,16.078432%);fill-opacity:1;" d="M 85.644531 49.046875 L 74.964844 49.046875 C 74.6875 49.046875 74.464844 48.820312 74.464844 48.546875 C 74.464844 48.269531 74.6875 48.046875 74.964844 48.046875 L 85.644531 48.046875 C 87.816406 48.046875 89.585938 46.277344 89.585938 44.105469 C 89.585938 42.253906 88.269531 40.632812 86.453125 40.253906 C 86.199219 40.199219 86.03125 39.960938 86.0625 39.703125 C 86.082031 39.535156 86.097656 39.367188 86.097656 39.191406 C 86.097656 36.933594 84.257812 35.09375 81.996094 35.09375 C 80.707031 35.09375 79.515625 35.6875 78.730469 36.726562 C 78.605469 36.890625 78.386719 36.964844 78.191406 36.90625 C 77.992188 36.847656 77.847656 36.671875 77.832031 36.464844 C 77.738281 35.226562 77.132812 34.0625 76.171875 33.273438 C 75.195312 32.476562 73.964844 32.125 72.699219 32.273438 C 70.753906 32.511719 69.144531 34.023438 68.785156 35.941406 C 68.675781 36.542969 68.679688 37.144531 68.796875 37.730469 C 68.84375 37.949219 68.734375 38.171875 68.535156 38.273438 C 68.339844 38.375 68.09375 38.335938 67.941406 38.167969 C 67.429688 37.617188 66.734375 37.3125 65.984375 37.3125 C 64.585938 37.3125 63.417969 38.40625 63.324219 39.808594 C 63.316406 39.953125 63.242188 40.085938 63.125 40.175781 C 63.011719 40.261719 62.855469 40.292969 62.71875 40.261719 C 61.964844 40.09375 61.246094 40.144531 60.535156 40.410156 C 59.035156 40.972656 57.988281 42.394531 57.929688 43.945312 C 57.886719 45.03125 58.277344 46.058594 59.027344 46.835938 C 59.773438 47.613281 60.785156 48.042969 61.863281 48.042969 L 72.097656 48.042969 C 72.375 48.042969 72.597656 48.269531 72.597656 48.542969 C 72.597656 48.820312 72.375 49.042969 72.097656 49.042969 L 61.867188 49.042969 C 60.511719 49.042969 59.246094 48.507812 58.304688 47.527344 C 57.367188 46.550781 56.878906 45.265625 56.929688 43.90625 C 57.007812 41.957031 58.3125 40.175781 60.183594 39.476562 C 60.90625 39.203125 61.648438 39.113281 62.40625 39.195312 C 62.769531 37.539062 64.246094 36.3125 65.988281 36.3125 C 66.589844 36.3125 67.179688 36.464844 67.707031 36.742188 C 67.710938 36.414062 67.742188 36.089844 67.804688 35.761719 C 68.242188 33.414062 70.203125 31.570312 72.578125 31.28125 C 74.113281 31.089844 75.617188 31.527344 76.804688 32.496094 C 77.703125 33.234375 78.351562 34.238281 78.652344 35.347656 C 79.570312 34.542969 80.746094 34.09375 82 34.09375 C 84.8125 34.09375 87.097656 36.378906 87.097656 39.191406 C 87.097656 39.253906 87.097656 39.320312 87.09375 39.382812 C 89.140625 40.011719 90.585938 41.929688 90.585938 44.105469 C 90.585938 46.828125 88.367188 49.046875 85.644531 49.046875 Z M 85.644531 49.046875 "/>
<path style=" stroke:none;fill-rule:nonzero;fill:rgb(99.215686%,98.823529%,93.725491%);fill-opacity:1;" d="M 72.390625 38.765625 C 70.75 38.660156 69.335938 39.792969 69.234375 41.300781 C 69.222656 41.488281 69.230469 41.671875 69.257812 41.851562 C 68.941406 41.492188 68.472656 41.25 67.933594 41.214844 C 66.949219 41.148438 66.097656 41.800781 65.976562 42.683594 C 65.796875 42.636719 65.609375 42.601562 65.414062 42.589844 C 63.976562 42.496094 62.742188 43.488281 62.652344 44.804688 "/>
<path style=" stroke:none;fill-rule:nonzero;fill:rgb(27.843139%,16.862746%,16.078432%);fill-opacity:1;" d="M 62.652344 45.058594 C 62.648438 45.058594 62.644531 45.058594 62.636719 45.058594 C 62.5 45.046875 62.394531 44.929688 62.40625 44.789062 C 62.503906 43.339844 63.859375 42.238281 65.433594 42.34375 C 65.550781 42.351562 65.667969 42.363281 65.785156 42.386719 C 66.046875 41.507812 66.953125 40.894531 67.953125 40.964844 C 68.328125 40.992188 68.679688 41.105469 68.984375 41.296875 C 68.984375 41.292969 68.984375 41.289062 68.988281 41.285156 C 69.097656 39.644531 70.609375 38.402344 72.410156 38.519531 C 72.546875 38.527344 72.652344 38.648438 72.640625 38.785156 C 72.632812 38.921875 72.535156 39.03125 72.375 39.019531 C 70.859375 38.914062 69.578125 39.949219 69.484375 41.316406 C 69.472656 41.480469 69.480469 41.648438 69.503906 41.816406 C 69.523438 41.925781 69.464844 42.03125 69.363281 42.078125 C 69.261719 42.121094 69.144531 42.101562 69.070312 42.015625 C 68.785156 41.695312 68.367188 41.496094 67.917969 41.464844 C 67.070312 41.417969 66.328125 41.960938 66.222656 42.722656 C 66.214844 42.792969 66.175781 42.855469 66.113281 42.894531 C 66.054688 42.933594 65.980469 42.949219 65.910156 42.929688 C 65.734375 42.882812 65.566406 42.851562 65.398438 42.84375 C 64.09375 42.75 62.984375 43.648438 62.902344 44.824219 C 62.894531 44.957031 62.785156 45.058594 62.652344 45.058594 Z M 62.652344 45.058594 "/>
<path style=" stroke:none;fill-rule:nonzero;fill:rgb(99.215686%,98.823529%,93.725491%);fill-opacity:1;" d="M 87.441406 40.28125 C 85.898438 39.554688 84.117188 40.070312 83.457031 41.433594 C 83.375 41.601562 83.316406 41.777344 83.277344 41.953125 "/>
<path style=" stroke:none;fill-rule:nonzero;fill:rgb(27.843139%,16.862746%,16.078432%);fill-opacity:1;" d="M 83.273438 42.203125 C 83.257812 42.203125 83.238281 42.203125 83.21875 42.199219 C 83.085938 42.167969 83 42.03125 83.03125 41.898438 C 83.078125 41.695312 83.144531 41.503906 83.230469 41.324219 C 83.945312 39.839844 85.886719 39.269531 87.546875 40.054688 C 87.671875 40.113281 87.726562 40.265625 87.667969 40.390625 C 87.609375 40.515625 87.457031 40.566406 87.335938 40.507812 C 85.914062 39.839844 84.277344 40.304688 83.683594 41.542969 C 83.609375 41.6875 83.554688 41.847656 83.515625 42.011719 C 83.492188 42.125 83.390625 42.203125 83.273438 42.203125 Z M 83.273438 42.203125 "/>
<path style=" stroke:none;fill-rule:nonzero;fill:rgb(20.392157%,59.607846%,85.882354%);fill-opacity:1;" d="M 65.261719 69.972656 L 39.539062 69.972656 C 35.773438 69.972656 32.691406 66.894531 32.691406 63.128906 L 32.691406 37.40625 C 32.691406 33.640625 35.773438 30.558594 39.539062 30.558594 L 65.261719 30.558594 C 69.027344 30.558594 72.105469 33.640625 72.105469 37.40625 L 72.105469 63.128906 C 72.109375 66.894531 69.027344 69.972656 65.261719 69.972656 Z M 65.261719 69.972656 "/>
<path style=" stroke:none;fill-rule:nonzero;fill:rgb(27.843139%,16.862746%,16.078432%);fill-opacity:1;" d="M 65.261719 70.675781 L 39.539062 70.675781 C 35.378906 70.675781 31.992188 67.289062 31.992188 63.128906 L 31.992188 37.40625 C 31.992188 33.242188 35.378906 29.859375 39.539062 29.859375 L 65.261719 29.859375 C 69.421875 29.859375 72.808594 33.242188 72.808594 37.40625 L 72.808594 63.128906 C 72.808594 67.289062 69.421875 70.675781 65.261719 70.675781 Z M 39.539062 31.257812 C 36.148438 31.257812 33.390625 34.015625 33.390625 37.40625 L 33.390625 63.128906 C 33.390625 66.515625 36.148438 69.273438 39.539062 69.273438 L 65.261719 69.273438 C 68.648438 69.273438 71.40625 66.515625 71.40625 63.128906 L 71.40625 37.40625 C 71.40625 34.015625 68.648438 31.257812 65.261719 31.257812 Z M 39.539062 31.257812 "/>
<path style=" stroke:none;fill-rule:nonzero;fill:rgb(99.215686%,98.823529%,93.333334%);fill-opacity:1;" d="M 63.742188 67.160156 L 41.054688 67.160156 C 38.003906 67.160156 35.507812 64.660156 35.507812 61.609375 L 35.507812 38.921875 C 35.507812 35.871094 38.003906 33.371094 41.054688 33.371094 L 63.742188 33.371094 C 66.796875 33.371094 69.292969 35.871094 69.292969 38.921875 L 69.292969 61.609375 C 69.292969 64.660156 66.796875 67.160156 63.742188 67.160156 Z M 63.742188 67.160156 "/>
<path style=" stroke:none;fill-rule:nonzero;fill:rgb(27.843139%,16.862746%,16.078432%);fill-opacity:1;" d="M 64.15625 67.507812 L 40.640625 67.507812 C 37.617188 67.507812 35.15625 65.050781 35.15625 62.023438 L 35.15625 38.507812 C 35.15625 35.484375 37.617188 33.023438 40.640625 33.023438 L 63.035156 33.023438 C 63.230469 33.023438 63.386719 33.179688 63.386719 33.375 C 63.386719 33.566406 63.230469 33.722656 63.035156 33.722656 L 40.640625 33.722656 C 38.003906 33.722656 35.855469 35.871094 35.855469 38.507812 L 35.855469 62.023438 C 35.855469 64.664062 38.003906 66.808594 40.640625 66.808594 L 64.15625 66.808594 C 66.796875 66.808594 68.941406 64.664062 68.941406 62.023438 L 68.941406 49.015625 C 68.941406 48.820312 69.097656 48.664062 69.292969 48.664062 C 69.488281 48.664062 69.644531 48.820312 69.644531 49.015625 L 69.644531 62.023438 C 69.640625 65.050781 67.183594 67.507812 64.15625 67.507812 Z M 64.15625 67.507812 "/>
<path style=" stroke:none;fill-rule:nonzero;fill:rgb(27.843139%,16.862746%,16.078432%);fill-opacity:1;" d="M 69.292969 47.488281 C 69.101562 47.488281 68.941406 47.332031 68.941406 47.136719 L 68.941406 44.636719 C 68.941406 44.441406 69.097656 44.285156 69.292969 44.285156 C 69.488281 44.285156 69.644531 44.441406 69.644531 44.636719 L 69.644531 47.136719 C 69.640625 47.332031 69.484375 47.488281 69.292969 47.488281 Z M 69.292969 43.734375 C 69.101562 43.734375 68.941406 43.578125 68.941406 43.382812 L 68.941406 42.132812 C 68.941406 41.941406 69.097656 41.78125 69.292969 41.78125 C 69.488281 41.78125 69.644531 41.941406 69.644531 42.132812 L 69.644531 43.382812 C 69.640625 43.578125 69.484375 43.734375 69.292969 43.734375 Z M 69.292969 43.734375 "/>
<path style=" stroke:none;fill-rule:nonzero;fill:rgb(20.392157%,59.607846%,85.882354%);fill-opacity:1;" d="M 62.425781 45.90625 C 62.425781 45.90625 62.222656 44.402344 61.609375 43.738281 C 60.832031 42.871094 59.960938 42.863281 59.5625 42.816406 C 56.699219 42.59375 52.402344 42.59375 52.402344 42.59375 L 52.394531 42.59375 C 52.394531 42.59375 48.101562 42.59375 45.238281 42.816406 C 44.835938 42.863281 43.964844 42.867188 43.1875 43.738281 C 42.574219 44.398438 42.375 45.90625 42.375 45.90625 C 42.375 45.90625 42.167969 47.671875 42.167969 49.433594 L 42.167969 51.089844 C 42.167969 52.855469 42.375 54.621094 42.375 54.621094 C 42.375 54.621094 42.574219 56.125 43.1875 56.785156 C 43.964844 57.652344 44.988281 57.628906 45.441406 57.71875 C 47.078125 57.886719 52.398438 57.9375 52.398438 57.9375 C 52.398438 57.9375 56.699219 57.929688 59.5625 57.710938 C 59.960938 57.660156 60.832031 57.65625 61.609375 56.785156 C 62.222656 56.125 62.425781 54.621094 62.425781 54.621094 C 62.425781 54.621094 62.628906 52.855469 62.628906 51.089844 L 62.628906 49.4375 C 62.628906 47.671875 62.425781 45.90625 62.425781 45.90625 Z M 62.425781 45.90625 "/>
<path style=" stroke:none;fill-rule:nonzero;fill:rgb(27.843139%,16.862746%,16.078432%);fill-opacity:1;" d="M 52.398438 58.328125 C 52.175781 58.324219 47.039062 58.273438 45.402344 58.105469 C 45.296875 58.085938 45.210938 58.078125 45.117188 58.066406 C 44.5625 57.992188 43.640625 57.875 42.898438 57.046875 C 42.222656 56.320312 42.011719 54.839844 41.988281 54.671875 C 41.980469 54.59375 41.78125 52.859375 41.78125 51.089844 L 41.78125 49.4375 C 41.78125 47.671875 41.980469 45.933594 41.988281 45.863281 C 42.011719 45.6875 42.222656 44.207031 42.902344 43.476562 C 43.703125 42.582031 44.59375 42.492188 45.070312 42.441406 L 45.1875 42.429688 C 48.050781 42.207031 52.351562 42.203125 52.394531 42.203125 C 52.445312 42.203125 56.746094 42.207031 59.589844 42.429688 L 59.726562 42.441406 C 60.207031 42.492188 61.097656 42.582031 61.902344 43.480469 C 62.574219 44.207031 62.789062 45.6875 62.808594 45.855469 C 62.808594 45.855469 62.808594 45.859375 62.8125 45.859375 C 62.820312 45.933594 63.019531 47.667969 63.019531 49.4375 L 63.019531 51.089844 C 63.019531 52.859375 62.820312 54.59375 62.8125 54.667969 C 62.789062 54.839844 62.574219 56.320312 61.898438 57.050781 C 61.097656 57.941406 60.210938 58.035156 59.730469 58.085938 L 59.609375 58.097656 C 56.746094 58.316406 52.441406 58.328125 52.398438 58.328125 Z M 52.402344 42.984375 C 52.351562 42.984375 48.082031 42.988281 45.265625 43.203125 L 45.148438 43.21875 C 44.722656 43.261719 44.082031 43.324219 43.476562 44 C 43.039062 44.472656 42.8125 45.574219 42.761719 45.957031 C 42.761719 45.96875 42.558594 47.714844 42.558594 49.4375 L 42.558594 51.089844 C 42.558594 52.8125 42.761719 54.558594 42.761719 54.574219 C 42.8125 54.953125 43.039062 56.054688 43.472656 56.519531 C 44.027344 57.136719 44.714844 57.226562 45.214844 57.289062 C 45.332031 57.304688 45.433594 57.320312 45.519531 57.335938 C 47.082031 57.496094 52.351562 57.546875 52.402344 57.546875 C 52.441406 57.546875 56.714844 57.539062 59.53125 57.320312 L 59.652344 57.308594 C 60.074219 57.265625 60.71875 57.195312 61.320312 56.527344 C 61.757812 56.054688 61.984375 54.953125 62.035156 54.570312 C 62.039062 54.558594 62.238281 52.8125 62.238281 51.089844 L 62.238281 49.4375 C 62.238281 47.746094 62.046875 46.035156 62.035156 45.953125 C 61.984375 45.566406 61.757812 44.46875 61.324219 44.003906 C 60.71875 43.324219 60.074219 43.261719 59.648438 43.21875 L 59.511719 43.203125 C 56.714844 42.988281 52.445312 42.984375 52.402344 42.984375 Z M 52.402344 42.984375 "/>
<path style=" stroke:none;fill-rule:nonzero;fill:rgb(99.215686%,98.823529%,93.333334%);fill-opacity:1;" d="M 49.84375 46.332031 L 49.84375 54.003906 L 56.234375 50.167969 Z M 49.84375 46.332031 "/>
<path style=" stroke:none;fill-rule:nonzero;fill:rgb(27.843139%,16.862746%,16.078432%);fill-opacity:1;" d="M 49.84375 54.355469 C 49.78125 54.355469 49.722656 54.339844 49.667969 54.308594 C 49.558594 54.246094 49.492188 54.128906 49.492188 54.003906 L 49.492188 46.332031 C 49.492188 46.207031 49.558594 46.089844 49.667969 46.027344 C 49.777344 45.964844 49.914062 45.964844 50.023438 46.03125 L 56.414062 49.867188 C 56.519531 49.929688 56.585938 50.042969 56.585938 50.167969 C 56.585938 50.289062 56.519531 50.402344 56.414062 50.46875 L 50.023438 54.304688 C 49.96875 54.335938 49.90625 54.355469 49.84375 54.355469 Z M 50.191406 46.949219 L 50.191406 53.386719 L 55.554688 50.167969 Z M 50.191406 46.949219 "/>
<path style=" stroke:none;fill-rule:nonzero;fill:rgb(99.215686%,98.823529%,93.725491%);fill-opacity:1;" d="M 42.125 72.488281 C 43.835938 72.488281 45.320312 72.488281 45.339844 72.488281 C 47.257812 72.488281 48.808594 70.96875 48.808594 69.089844 C 48.808594 67.453125 47.628906 66.089844 46.054688 65.769531 C 46.070312 65.625 46.085938 65.480469 46.085938 65.332031 C 46.085938 63.390625 44.476562 61.816406 42.492188 61.816406 C 41.320312 61.816406 40.28125 62.367188 39.628906 63.214844 C 39.460938 61.054688 37.484375 59.386719 35.175781 59.660156 C 33.488281 59.863281 32.09375 61.140625 31.78125 62.777344 C 31.683594 63.304688 31.691406 63.8125 31.792969 64.289062 C 31.339844 63.8125 30.695312 63.511719 29.976562 63.511719 C 28.664062 63.511719 27.59375 64.515625 27.507812 65.777344 C 26.910156 65.648438 26.261719 65.65625 25.578125 65.90625 C 24.273438 66.386719 23.34375 67.589844 23.289062 68.953125 C 23.214844 70.890625 24.792969 72.488281 26.757812 72.488281 C 26.90625 72.488281 27.429688 72.488281 27.550781 72.488281 L 34.753906 72.488281 M 36.246094 72.488281 L 36.570312 72.488281 "/>
<path style=" stroke:none;fill-rule:nonzero;fill:rgb(27.843139%,16.862746%,16.078432%);fill-opacity:1;" d="M 45.339844 72.988281 L 42.125 72.988281 C 41.851562 72.988281 41.625 72.761719 41.625 72.488281 C 41.625 72.210938 41.851562 71.988281 42.125 71.988281 L 45.339844 71.988281 C 46.976562 71.988281 48.308594 70.6875 48.308594 69.089844 C 48.308594 67.726562 47.320312 66.535156 45.953125 66.257812 C 45.699219 66.207031 45.527344 65.964844 45.558594 65.707031 C 45.574219 65.585938 45.585938 65.460938 45.585938 65.332031 C 45.585938 63.667969 44.195312 62.316406 42.492188 62.316406 C 41.511719 62.316406 40.613281 62.753906 40.019531 63.523438 C 39.894531 63.6875 39.679688 63.753906 39.484375 63.695312 C 39.285156 63.636719 39.144531 63.460938 39.128906 63.253906 C 39.058594 62.34375 38.621094 61.515625 37.898438 60.921875 C 37.15625 60.3125 36.210938 60.042969 35.234375 60.160156 C 33.761719 60.335938 32.542969 61.449219 32.273438 62.871094 C 32.1875 63.316406 32.191406 63.757812 32.28125 64.1875 C 32.324219 64.40625 32.21875 64.628906 32.023438 64.734375 C 31.824219 64.835938 31.582031 64.796875 31.425781 64.632812 C 31.046875 64.234375 30.53125 64.011719 29.976562 64.011719 C 28.9375 64.011719 28.074219 64.800781 28.003906 65.8125 C 27.996094 65.957031 27.921875 66.089844 27.808594 66.175781 C 27.691406 66.265625 27.542969 66.296875 27.402344 66.265625 C 26.828125 66.140625 26.289062 66.179688 25.753906 66.378906 C 24.621094 66.792969 23.832031 67.835938 23.789062 68.976562 C 23.757812 69.757812 24.039062 70.5 24.589844 71.070312 C 25.15625 71.660156 25.925781 71.988281 26.753906 71.988281 L 34.753906 71.988281 C 35.027344 71.988281 35.253906 72.210938 35.253906 72.488281 C 35.253906 72.761719 35.027344 72.988281 34.753906 72.988281 L 26.753906 72.988281 C 25.664062 72.988281 24.613281 72.539062 23.867188 71.765625 C 23.128906 70.996094 22.746094 69.992188 22.789062 68.933594 C 22.851562 67.394531 23.902344 65.992188 25.40625 65.4375 C 25.957031 65.238281 26.523438 65.160156 27.09375 65.210938 C 27.425781 63.941406 28.601562 63.011719 29.976562 63.011719 C 30.40625 63.011719 30.828125 63.105469 31.21875 63.28125 C 31.226562 63.085938 31.25 62.886719 31.289062 62.683594 C 31.640625 60.839844 33.214844 59.394531 35.113281 59.164062 C 36.367188 59.019531 37.578125 59.367188 38.53125 60.148438 C 39.199219 60.699219 39.679688 61.40625 39.933594 62.195312 C 40.648438 61.628906 41.542969 61.316406 42.488281 61.316406 C 44.746094 61.316406 46.582031 63.117188 46.582031 65.332031 C 46.582031 65.351562 46.582031 65.371094 46.582031 65.390625 C 48.1875 65.910156 49.308594 67.402344 49.308594 69.089844 C 49.308594 71.238281 47.53125 72.988281 45.339844 72.988281 Z M 36.570312 72.988281 L 36.246094 72.988281 C 35.96875 72.988281 35.746094 72.761719 35.746094 72.488281 C 35.746094 72.210938 35.96875 71.988281 36.246094 71.988281 L 36.570312 71.988281 C 36.847656 71.988281 37.070312 72.210938 37.070312 72.488281 C 37.070312 72.761719 36.847656 72.988281 36.570312 72.988281 Z M 36.570312 72.988281 "/>
<path style=" stroke:none;fill-rule:nonzero;fill:rgb(27.843139%,16.862746%,16.078432%);fill-opacity:1;" d="M 43.789062 67.695312 C 43.773438 67.695312 43.753906 67.691406 43.734375 67.6875 C 43.601562 67.660156 43.515625 67.523438 43.546875 67.390625 C 43.582031 67.238281 43.632812 67.089844 43.703125 66.949219 C 44.257812 65.828125 45.789062 65.410156 47.113281 66.023438 C 47.238281 66.082031 47.292969 66.230469 47.234375 66.355469 C 47.175781 66.480469 47.027344 66.535156 46.902344 66.480469 C 45.820312 65.980469 44.585938 66.289062 44.148438 67.171875 C 44.097656 67.273438 44.058594 67.386719 44.035156 67.5 C 44.007812 67.613281 43.90625 67.695312 43.789062 67.695312 Z M 39.105469 72.988281 L 38.101562 72.988281 C 37.824219 72.988281 37.601562 72.761719 37.601562 72.488281 C 37.601562 72.210938 37.824219 71.988281 38.101562 71.988281 L 39.105469 71.988281 C 39.382812 71.988281 39.605469 72.210938 39.605469 72.488281 C 39.605469 72.761719 39.382812 72.988281 39.105469 72.988281 Z M 39.105469 72.988281 "/>
</g>
</svg>
