<?xml version="1.0" encoding="UTF-8"?>
<svg xmlns="http://www.w3.org/2000/svg" xmlns:xlink="http://www.w3.org/1999/xlink" viewBox="0 0 100 100" width="100px" height="100px">
<g id="surface2760485">
<path style=" stroke:none;fill-rule:nonzero;fill:rgb(93.725491%,79.607844%,86.274511%);fill-opacity:1;" d="M 87.214844 56.710938 C 88.351562 54.554688 89 52.105469 89 49.5 C 89 42.878906 84.839844 37.242188 79 35.023438 C 79 35.015625 79 35.007812 79 35 C 79 23.402344 69.597656 14 58 14 C 48.214844 14 40.019531 20.699219 37.6875 29.757812 C 36.210938 29.273438 34.636719 29 33 29 C 25.308594 29 18.976562 34.792969 18.109375 42.253906 C 12.90625 43.351562 9 47.96875 9 53.5 C 9 59.851562 14.148438 65 20.5 65 C 20.675781 65 20.851562 64.988281 21.027344 64.976562 C 21.023438 65.152344 21 65.324219 21 65.5 C 21 76.820312 30.179688 86 41.5 86 C 47.9375 86 53.675781 83.027344 57.433594 78.386719 C 59.613281 80.609375 62.640625 82 66 82 C 70.648438 82 74.675781 79.351562 76.664062 75.480469 C 77.71875 75.816406 78.835938 76 80 76 C 86.074219 76 91 71.074219 91 65 C 91 61.6875 89.53125 58.726562 87.214844 56.710938 Z M 87.214844 56.710938 "/>
<path style=" stroke:none;fill-rule:nonzero;fill:rgb(99.215686%,98.823529%,93.725491%);fill-opacity:1;" d="M 78.875 57.5 C 78.875 57.5 82.515625 57.5 85 57.5 C 87.484375 57.5 89.5 55.484375 89.5 53 C 89.5 50.667969 87.71875 48.769531 85.445312 48.546875 C 85.46875 48.363281 85.5 48.1875 85.5 48 C 85.5 45.515625 83.484375 43.5 81 43.5 C 79.5625 43.5 78.296875 44.1875 77.472656 45.234375 C 77.332031 42.601562 75.171875 40.5 72.5 40.5 C 69.738281 40.5 67.5 42.738281 67.5 45.5 C 67.5 45.945312 67.578125 46.371094 67.6875 46.78125 C 67.046875 46.003906 66.085938 45.5 65 45.5 C 63.21875 45.5 61.765625 46.835938 61.546875 48.554688 C 61.363281 48.53125 61.1875 48.5 61 48.5 C 58.515625 48.5 56.5 50.515625 56.5 53 C 56.5 55.484375 58.515625 57.5 61 57.5 C 63.484375 57.5 70.5 57.5 70.5 57.5 L 75.875 57.5 L 75.875 58 L 78.875 58 Z M 78.875 57.5 "/>
<path style=" stroke:none;fill-rule:nonzero;fill:rgb(27.843139%,16.862746%,16.078432%);fill-opacity:1;" d="M 72.5 40 C 69.46875 40 67 42.46875 67 45.5 C 67 45.515625 67 45.53125 67 45.546875 C 66.398438 45.191406 65.710938 45 65 45 C 63.167969 45 61.589844 46.261719 61.140625 48.003906 C 61.09375 48.003906 61.046875 48 61 48 C 58.242188 48 56 50.242188 56 53 C 56 55.757812 58.242188 58 61 58 L 75.875 58 C 76.152344 58 76.375 57.777344 76.375 57.5 C 76.375 57.222656 76.152344 57 75.875 57 L 61 57 C 58.792969 57 57 55.207031 57 53 C 57 50.792969 58.792969 49 61 49 C 61.117188 49 61.230469 49.015625 61.34375 49.03125 L 61.484375 49.050781 C 61.503906 49.054688 61.523438 49.054688 61.546875 49.054688 C 61.792969 49.054688 62.007812 48.871094 62.039062 48.617188 C 62.230469 47.125 63.503906 46 65 46 C 65.886719 46 66.722656 46.402344 67.300781 47.101562 C 67.398438 47.21875 67.542969 47.28125 67.6875 47.28125 C 67.765625 47.28125 67.84375 47.265625 67.914062 47.226562 C 68.125 47.117188 68.230469 46.878906 68.167969 46.652344 C 68.054688 46.21875 68 45.851562 68 45.5 C 68 43.019531 70.019531 41 72.5 41 C 74.882812 41 76.847656 42.871094 76.972656 45.261719 C 76.984375 45.472656 77.125 45.648438 77.324219 45.714844 C 77.371094 45.730469 77.425781 45.738281 77.476562 45.738281 C 77.625 45.738281 77.769531 45.667969 77.867188 45.546875 C 78.636719 44.5625 79.777344 44 81 44 C 83.207031 44 85 45.792969 85 48 C 85 48.117188 84.984375 48.230469 84.96875 48.34375 L 84.949219 48.484375 C 84.933594 48.617188 84.972656 48.753906 85.054688 48.855469 C 85.140625 48.960938 85.261719 49.027344 85.394531 49.042969 C 87.449219 49.246094 89 50.949219 89 53 C 89 55.207031 87.207031 57 85 57 L 78.875 57 C 78.597656 57 78.375 57.222656 78.375 57.5 C 78.375 57.777344 78.597656 58 78.875 58 L 85 58 C 87.757812 58 90 55.757812 90 53 C 90 50.601562 88.3125 48.585938 85.996094 48.121094 C 86 48.082031 86 48.039062 86 48 C 86 45.242188 83.757812 43 81 43 C 79.824219 43 78.707031 43.414062 77.816406 44.164062 C 77.21875 41.761719 75.054688 40 72.5 40 Z M 72.5 40 "/>
<path style=" stroke:none;fill-rule:nonzero;fill:rgb(27.843139%,16.862746%,16.078432%);fill-opacity:1;" d="M 71 47 C 69.597656 47 68.390625 48 68.085938 49.339844 C 67.71875 49.117188 67.300781 49 66.875 49 C 65.671875 49 64.675781 49.898438 64.523438 51.066406 C 64.320312 51.023438 64.125 51 63.9375 51 C 62.40625 51 61.125 52.199219 61.019531 53.730469 C 61.011719 53.871094 61.113281 53.988281 61.25 54 C 61.257812 54 61.261719 54 61.269531 54 C 61.398438 54 61.507812 53.898438 61.519531 53.769531 C 61.605469 52.496094 62.667969 51.5 63.9375 51.5 C 64.164062 51.5 64.40625 51.542969 64.675781 51.628906 C 64.695312 51.632812 64.71875 51.636719 64.742188 51.636719 C 64.796875 51.636719 64.851562 51.617188 64.898438 51.582031 C 64.960938 51.535156 65 51.453125 65 51.375 C 65 50.339844 65.839844 49.5 66.875 49.5 C 67.320312 49.5 67.761719 49.667969 68.105469 49.972656 C 68.152344 50.015625 68.210938 50.035156 68.269531 50.035156 C 68.304688 50.035156 68.335938 50.03125 68.363281 50.015625 C 68.453125 49.980469 68.511719 49.898438 68.519531 49.804688 C 68.621094 48.511719 69.710938 47.5 71 47.5 C 71.207031 47.5 71.425781 47.535156 71.683594 47.605469 C 71.703125 47.613281 71.730469 47.617188 71.753906 47.617188 C 71.859375 47.617188 71.960938 47.542969 71.992188 47.433594 C 72.027344 47.300781 71.953125 47.164062 71.820312 47.125 C 71.515625 47.039062 71.257812 47 71 47 Z M 71 47 "/>
<path style=" stroke:none;fill-rule:nonzero;fill:rgb(27.843139%,16.862746%,16.078432%);fill-opacity:1;" d="M 84.882812 48.5 C 83.558594 48.5 82.375 49.398438 82.007812 50.683594 C 81.972656 50.816406 82.046875 50.953125 82.179688 50.992188 C 82.203125 50.996094 82.226562 51 82.25 51 C 82.359375 51 82.460938 50.929688 82.488281 50.816406 C 82.796875 49.746094 83.777344 49 84.882812 49 C 85 49 85.113281 49.015625 85.226562 49.027344 C 85.238281 49.03125 85.246094 49.03125 85.261719 49.03125 C 85.382812 49.03125 85.488281 48.941406 85.507812 48.816406 C 85.523438 48.679688 85.429688 48.550781 85.292969 48.535156 C 85.15625 48.515625 85.023438 48.5 84.882812 48.5 Z M 84.882812 48.5 "/>
<path style=" stroke:none;fill-rule:nonzero;fill:rgb(100%,100%,100%);fill-opacity:1;" d="M 14.40625 51 L 4.5 51 C 4.222656 51 4 50.777344 4 50.5 C 4 50.222656 4.222656 50 4.5 50 L 14.40625 50 C 14.679688 50 14.90625 50.222656 14.90625 50.5 C 14.90625 50.777344 14.683594 51 14.40625 51 Z M 14.40625 51 "/>
<path style=" stroke:none;fill-rule:nonzero;fill:rgb(100%,100%,100%);fill-opacity:1;" d="M 17.5 51 L 16.5 51 C 16.222656 51 16 50.777344 16 50.5 C 16 50.222656 16.222656 50 16.5 50 L 17.5 50 C 17.777344 50 18 50.222656 18 50.5 C 18 50.777344 17.777344 51 17.5 51 Z M 17.5 51 "/>
<path style=" stroke:none;fill-rule:nonzero;fill:rgb(100%,100%,100%);fill-opacity:1;" d="M 22.492188 53 L 13.5 53 C 13.222656 53 13 52.777344 13 52.5 C 13 52.222656 13.222656 52 13.5 52 L 22.492188 52 C 22.765625 52 22.992188 52.222656 22.992188 52.5 C 22.992188 52.777344 22.765625 53 22.492188 53 Z M 22.492188 53 "/>
<path style=" stroke:none;fill-rule:nonzero;fill:rgb(100%,100%,100%);fill-opacity:1;" d="M 11.5 53 L 10.5 53 C 10.222656 53 10 52.777344 10 52.5 C 10 52.222656 10.222656 52 10.5 52 L 11.5 52 C 11.777344 52 12 52.222656 12 52.5 C 12 52.777344 11.777344 53 11.5 53 Z M 11.5 53 "/>
<path style=" stroke:none;fill-rule:nonzero;fill:rgb(100%,100%,100%);fill-opacity:1;" d="M 8.5 53 L 6.5 53 C 6.222656 53 6 52.777344 6 52.5 C 6 52.222656 6.222656 52 6.5 52 L 8.5 52 C 8.777344 52 9 52.222656 9 52.5 C 9 52.777344 8.777344 53 8.5 53 Z M 8.5 53 "/>
<path style=" stroke:none;fill-rule:nonzero;fill:rgb(100%,100%,100%);fill-opacity:1;" d="M 14.5 55 L 12.5 55 C 12.222656 55 12 54.777344 12 54.5 C 12 54.222656 12.222656 54 12.5 54 L 14.5 54 C 14.777344 54 15 54.222656 15 54.5 C 15 54.777344 14.777344 55 14.5 55 Z M 14.5 55 "/>
<path style=" stroke:none;fill-rule:nonzero;fill:rgb(100%,100%,100%);fill-opacity:1;" d="M 17.5 46 C 17.324219 46 16.675781 46 16.5 46 C 16.222656 46 16 46.222656 16 46.5 C 16 46.777344 16.222656 47 16.5 47 C 16.675781 47 17.324219 47 17.5 47 C 17.777344 47 18 46.777344 18 46.5 C 18 46.222656 17.777344 46 17.5 46 Z M 17.5 46 "/>
<path style=" stroke:none;fill-rule:nonzero;fill:rgb(100%,100%,100%);fill-opacity:1;" d="M 17.5 48 C 17.324219 48 12.675781 48 12.5 48 C 12.222656 48 12 48.222656 12 48.5 C 12 48.777344 12.222656 49 12.5 49 C 12.675781 49 17.324219 49 17.5 49 C 17.777344 49 18 48.777344 18 48.5 C 18 48.222656 17.777344 48 17.5 48 Z M 17.5 48 "/>
<path style=" stroke:none;fill-rule:nonzero;fill:rgb(100%,100%,100%);fill-opacity:1;" d="M 22.5 50 C 22.324219 50 19.675781 50 19.5 50 C 19.222656 50 19 50.222656 19 50.5 C 19 50.777344 19.222656 51 19.5 51 C 19.675781 51 22.324219 51 22.5 51 C 22.777344 51 23 50.777344 23 50.5 C 23 50.222656 22.777344 50 22.5 50 Z M 22.5 50 "/>
<path style=" stroke:none;fill-rule:nonzero;fill:rgb(100%,100%,100%);fill-opacity:1;" d="M 70.5 20 L 60.5 20 C 60.222656 20 60 19.777344 60 19.5 C 60 19.222656 60.222656 19 60.5 19 L 70.5 19 C 70.777344 19 71 19.222656 71 19.5 C 71 19.777344 70.777344 20 70.5 20 Z M 70.5 20 "/>
<path style=" stroke:none;fill-rule:nonzero;fill:rgb(100%,100%,100%);fill-opacity:1;" d="M 74.5 20 L 72.5 20 C 72.222656 20 72 19.777344 72 19.5 C 72 19.222656 72.222656 19 72.5 19 L 74.5 19 C 74.777344 19 75 19.222656 75 19.5 C 75 19.777344 74.777344 20 74.5 20 Z M 74.5 20 "/>
<path style=" stroke:none;fill-rule:nonzero;fill:rgb(100%,100%,100%);fill-opacity:1;" d="M 79.5 22 L 69.5 22 C 69.222656 22 69 21.777344 69 21.5 C 69 21.222656 69.222656 21 69.5 21 L 79.5 21 C 79.777344 21 80 21.222656 80 21.5 C 80 21.777344 79.777344 22 79.5 22 Z M 79.5 22 "/>
<path style=" stroke:none;fill-rule:nonzero;fill:rgb(100%,100%,100%);fill-opacity:1;" d="M 67.5 22 L 66.5 22 C 66.222656 22 66 21.777344 66 21.5 C 66 21.222656 66.222656 21 66.5 21 L 67.5 21 C 67.777344 21 68 21.222656 68 21.5 C 68 21.777344 67.777344 22 67.5 22 Z M 67.5 22 "/>
<path style=" stroke:none;fill-rule:nonzero;fill:rgb(100%,100%,100%);fill-opacity:1;" d="M 64.46875 22 L 62.5 22 C 62.222656 22 62 21.777344 62 21.5 C 62 21.222656 62.222656 21 62.5 21 L 64.46875 21 C 64.746094 21 64.96875 21.222656 64.96875 21.5 C 64.96875 21.777344 64.746094 22 64.46875 22 Z M 64.46875 22 "/>
<path style=" stroke:none;fill-rule:nonzero;fill:rgb(100%,100%,100%);fill-opacity:1;" d="M 73.5 18 L 68.5 18 C 68.222656 18 68 17.777344 68 17.5 C 68 17.222656 68.222656 17 68.5 17 L 73.5 17 C 73.777344 17 74 17.222656 74 17.5 C 74 17.777344 73.777344 18 73.5 18 Z M 73.5 18 "/>
<path style=" stroke:none;fill-rule:nonzero;fill:rgb(100%,100%,100%);fill-opacity:1;" d="M 70.5 24 L 68.5 24 C 68.222656 24 68 23.777344 68 23.5 C 68 23.222656 68.222656 23 68.5 23 L 70.5 23 C 70.777344 23 71 23.222656 71 23.5 C 71 23.777344 70.777344 24 70.5 24 Z M 70.5 24 "/>
<path style="fill-rule:nonzero;fill:rgb(43.529412%,45.09804%,67.843139%);fill-opacity:1;stroke-width:2.408;stroke-linecap:round;stroke-linejoin:round;stroke:rgb(27.843139%,16.862746%,16.078432%);stroke-opacity:1;stroke-miterlimit:10;" d="M 65.138281 49.456719 L 49.423125 65.171875 L 49.423125 121.74375 L 68.282656 121.74375 L 68.282656 137.458906 L 83.997812 121.74375 L 96.568594 121.74375 L 124.86125 93.457813 L 124.86125 49.456719 Z M 65.138281 49.456719 " transform="matrix(0.581395,0,0,0.581395,0,0)"/>
<path style=" stroke:none;fill-rule:nonzero;fill:rgb(100%,100%,100%);fill-opacity:1;" d="M 68.164062 52.414062 L 60.855469 59.722656 L 53.546875 59.722656 L 47.148438 66.117188 L 47.148438 59.722656 L 38.929688 59.722656 L 38.929688 32.3125 L 68.164062 32.3125 Z M 68.164062 52.414062 "/>
<path style=" stroke:none;fill-rule:nonzero;fill:rgb(43.529412%,45.09804%,67.843139%);fill-opacity:1;" d="M 59.027344 38.710938 L 62.683594 38.710938 L 62.683594 49.675781 L 59.027344 49.675781 Z M 59.027344 38.710938 "/>
<path style=" stroke:none;fill-rule:nonzero;fill:rgb(43.529412%,45.09804%,67.843139%);fill-opacity:1;" d="M 48.976562 38.710938 L 52.632812 38.710938 L 52.632812 49.675781 L 48.976562 49.675781 Z M 48.976562 38.710938 "/>
<path style="fill:none;stroke-width:1;stroke-linecap:round;stroke-linejoin:round;stroke:rgb(27.843139%,16.862746%,16.078432%);stroke-opacity:1;stroke-miterlimit:10;" d="M 117.242188 85.160156 L 117.242188 90.152187 L 104.671406 102.722969 L 92.100625 102.722969 L 81.095313 113.721563 L 81.095313 102.722969 L 66.959063 102.722969 L 66.959063 69.680156 " transform="matrix(0.581395,0,0,0.581395,0,0)"/>
<path style="fill:none;stroke-width:1;stroke-linecap:round;stroke-linejoin:round;stroke:rgb(27.843139%,16.862746%,16.078432%);stroke-opacity:1;stroke-miterlimit:10;" d="M 117.242188 74.840156 L 117.242188 79.973281 " transform="matrix(0.581395,0,0,0.581395,0,0)"/>
<path style="fill:none;stroke-width:1;stroke-linecap:round;stroke-linejoin:round;stroke:rgb(27.843139%,16.862746%,16.078432%);stroke-opacity:1;stroke-miterlimit:10;" d="M 66.959063 64.493281 L 66.959063 55.5775 L 117.242188 55.5775 L 117.242188 69.653281 " transform="matrix(0.581395,0,0,0.581395,0,0)"/>
<path style="fill:none;stroke-width:0.5;stroke-linecap:round;stroke-linejoin:round;stroke:rgb(27.843139%,16.862746%,16.078432%);stroke-opacity:1;stroke-miterlimit:10;" d="M 107.815781 74.39 L 107.815781 85.435625 L 101.527031 85.435625 L 101.527031 66.582813 L 107.815781 66.582813 L 107.815781 70.076562 " transform="matrix(0.581395,0,0,0.581395,0,0)"/>
<path style="fill:none;stroke-width:0.5;stroke-linecap:round;stroke-linejoin:round;stroke:rgb(27.843139%,16.862746%,16.078432%);stroke-opacity:1;stroke-miterlimit:10;" d="M 84.239688 71.803281 L 84.239688 66.582813 L 90.528437 66.582813 L 90.528437 85.435625 L 84.239688 85.435625 L 84.239688 83.003438 " transform="matrix(0.581395,0,0,0.581395,0,0)"/>
<path style="fill:none;stroke-width:0.5;stroke-linecap:round;stroke-linejoin:round;stroke:rgb(27.843139%,16.862746%,16.078432%);stroke-opacity:1;stroke-miterlimit:10;" d="M 84.239688 78.69 L 84.239688 76.116719 " transform="matrix(0.581395,0,0,0.581395,0,0)"/>
<path style=" stroke:none;fill-rule:nonzero;fill:rgb(99.215686%,98.823529%,93.725491%);fill-opacity:1;" d="M 17.5 73.5 C 17.5 73.5 15.933594 73.5 14 73.5 C 12.066406 73.5 10.5 71.933594 10.5 70 C 10.5 68.21875 11.835938 66.765625 13.554688 66.546875 C 13.527344 66.367188 13.5 66.1875 13.5 66 C 13.5 64.066406 15.066406 62.5 17 62.5 C 18.03125 62.5 18.949219 62.953125 19.589844 63.664062 C 19.972656 61.855469 21.578125 60.5 23.5 60.5 C 25.710938 60.5 27.5 62.289062 27.5 64.5 C 27.5 64.691406 27.46875 64.875 27.445312 65.058594 C 27.871094 64.714844 28.40625 64.5 29 64.5 C 30.226562 64.5 31.246094 65.386719 31.453125 66.554688 C 31.632812 66.527344 31.8125 66.5 32 66.5 C 33.933594 66.5 35.5 68.066406 35.5 70 C 35.5 71.933594 33.933594 73.5 32 73.5 C 30.066406 73.5 24.5 73.5 24.5 73.5 L 24.5 74 L 17.5 74 Z M 17.5 73.5 "/>
<path style=" stroke:none;fill-rule:nonzero;fill:rgb(27.843139%,16.862746%,16.078432%);fill-opacity:1;" d="M 15.75 69 C 15.886719 69 16 68.886719 16 68.75 C 16 67.527344 15.003906 66.53125 13.78125 66.53125 C 13.746094 66.539062 13.046875 66.53125 12.539062 66.667969 C 12.40625 66.703125 12.324219 66.839844 12.363281 66.972656 C 12.398438 67.109375 12.535156 67.1875 12.667969 67.148438 C 13.113281 67.03125 13.769531 67.03125 13.78125 67.03125 C 14.730469 67.03125 15.5 67.804688 15.5 68.75 C 15.5 68.886719 15.613281 69 15.75 69 Z M 15.75 69 "/>
<path style=" stroke:none;fill-rule:nonzero;fill:rgb(27.843139%,16.862746%,16.078432%);fill-opacity:1;" d="M 23 73.5 C 23 73.777344 22.777344 74 22.5 74 C 22.222656 74 22 73.777344 22 73.5 C 22 73.222656 22.222656 73 22.5 73 C 22.777344 73 23 73.222656 23 73.5 Z M 23 73.5 "/>
<path style=" stroke:none;fill-rule:nonzero;fill:rgb(27.843139%,16.862746%,16.078432%);fill-opacity:1;" d="M 14 74 L 17.5 74 C 17.777344 74 18 73.777344 18 73.5 C 18 73.222656 17.777344 73 17.5 73 L 14 73 C 12.347656 73 11 71.652344 11 70 C 11 68.503906 12.125 67.230469 13.617188 67.039062 C 13.753906 67.023438 13.871094 66.953125 13.953125 66.84375 C 14.035156 66.738281 14.070312 66.601562 14.046875 66.46875 C 14.023438 66.3125 14 66.160156 14 66 C 14 64.347656 15.347656 63 17 63 C 17.851562 63 18.636719 63.355469 19.21875 64 C 19.34375 64.140625 19.539062 64.199219 19.71875 64.148438 C 19.902344 64.097656 20.039062 63.953125 20.078125 63.769531 C 20.421875 62.164062 21.859375 61 23.5 61 C 25.429688 61 27 62.570312 27 64.5 C 27 64.644531 26.980469 64.78125 26.960938 64.917969 C 26.929688 65.121094 27.023438 65.355469 27.199219 65.457031 C 27.378906 65.558594 27.597656 65.574219 27.757812 65.449219 C 28.121094 65.15625 28.550781 65 29 65 C 29.964844 65 30.792969 65.691406 30.964844 66.644531 C 31.011719 66.910156 31.257812 67.089844 31.53125 67.050781 C 31.6875 67.023438 31.839844 67 32 67 C 33.652344 67 35 68.347656 35 70 C 35 71.652344 33.652344 73 32 73 L 24.5 73 C 24.222656 73 24 73.222656 24 73.5 C 24 73.777344 24.222656 74 24.5 74 L 32 74 C 34.207031 74 36 72.207031 36 70 C 36 67.792969 34.207031 66 32 66 C 31.941406 66 31.882812 66.003906 31.824219 66.007812 C 31.410156 64.820312 30.289062 64 29 64 C 28.652344 64 28.3125 64.0625 27.988281 64.179688 C 27.824219 61.847656 25.875 60 23.5 60 C 21.667969 60 20.035156 61.128906 19.347656 62.773438 C 18.667969 62.277344 17.84375 62 17 62 C 14.792969 62 13 63.792969 13 66 C 13 66.046875 13 66.09375 13.003906 66.140625 C 11.261719 66.589844 10 68.167969 10 70 C 10 72.207031 11.792969 74 14 74 Z M 14 74 "/>
<path style=" stroke:none;fill-rule:nonzero;fill:rgb(27.843139%,16.862746%,16.078432%);fill-opacity:1;" d="M 19.5 73 C 19.660156 73 20.339844 73 20.5 73 C 20.777344 73 21 73.222656 21 73.5 C 21 73.777344 20.777344 74 20.5 74 C 20.339844 74 19.660156 74 19.5 74 C 19.222656 74 19 73.777344 19 73.5 C 19 73.222656 19.222656 73 19.5 73 Z M 19.5 73 "/>
</g>
</svg>
